<svg width="26" height="25" viewBox="0 0 26 25" fill="none" xmlns="http://www.w3.org/2000/svg">
<g clip-path="url(#clip0_309_78)">
<path d="M25.2136 11.8087C25.2133 11.8084 25.213 11.8081 25.2127 11.8078L20.11 6.72968C19.7277 6.34926 19.1094 6.35068 18.7289 6.733C18.3484 7.11528 18.3499 7.73359 18.7321 8.11406L22.1581 11.5234H1.47656C0.937207 11.5234 0.5 11.9606 0.5 12.5C0.5 13.0393 0.937207 13.4765 1.47656 13.4765H22.1581L18.7322 16.8859C18.3499 17.2664 18.3484 17.8847 18.7289 18.267C19.1094 18.6493 19.7278 18.6507 20.11 18.2703L25.2127 13.1922C25.213 13.1919 25.2133 13.1915 25.2136 13.1912C25.5961 12.8095 25.5949 12.1892 25.2136 11.8087Z" fill="white"/>
</g>
<defs>
<clipPath id="clip0_309_78">
<rect width="25" height="25" fill="white" transform="translate(0.5)"/>
</clipPath>
</defs>
</svg>
