<svg width="25" height="25" viewBox="0 0 25 25" fill="none" xmlns="http://www.w3.org/2000/svg">
<path d="M8 1.5C4.415 1.5 1.5 4.415 1.5 8V17C1.5 20.585 4.415 23.5 8 23.5H17C20.585 23.5 23.5 20.585 23.5 17V8C23.5 4.415 20.585 1.5 17 1.5H8ZM18.5 5.5C19.05 5.5 19.5 5.95 19.5 6.5C19.5 7.05 19.05 7.5 18.5 7.5C17.95 7.5 17.5 7.05 17.5 6.5C17.5 5.95 17.95 5.5 18.5 5.5ZM12.5 7C15.535 7 18 9.465 18 12.5C18 15.535 15.535 18 12.5 18C9.465 18 7 15.535 7 12.5C7 9.465 9.465 7 12.5 7ZM12.5 8C10.02 8 8 10.02 8 12.5C8 14.98 10.02 17 12.5 17C14.98 17 17 14.98 17 12.5C17 10.02 14.98 8 12.5 8Z" fill="white"/>
</svg>
