<svg width="40" height="40" viewBox="0 0 40 40" fill="none" xmlns="http://www.w3.org/2000/svg">
<g clip-path="url(#clip0_309_190)">
<path d="M38.9707 29.5026L33.9981 24.53C32.6272 23.1592 30.3964 23.1592 29.0255 24.53L26.7653 26.7903C25.7267 27.8289 24.0367 27.8285 22.9985 26.7906L13.2016 16.9854C12.1606 15.9444 12.1604 14.2595 13.2016 13.2183C13.5657 12.8542 14.6111 11.8088 15.4618 10.9581C16.8268 9.59321 16.8458 7.36938 15.4605 5.98422L10.4893 1.02859C9.11831 -0.342269 6.88761 -0.342269 5.52034 1.025C4.49721 2.03922 4.16721 2.36641 3.70846 2.82117C-1.2353 7.76485 -1.2353 15.8088 3.70822 20.7524L19.2311 36.2833C24.1864 41.2387 32.2067 41.2391 37.1624 36.2833L38.9707 34.4751C40.3417 33.1042 40.3417 30.8735 38.9707 29.5026ZM7.17425 2.68609C7.6312 2.22914 8.37464 2.22906 8.83308 2.68734L13.8043 7.64297C14.2624 8.10102 14.2624 8.84235 13.8043 9.30048L12.9755 10.1292L6.34971 3.50344L7.17425 2.68609ZM20.8889 34.626L5.36596 19.0949C1.54111 15.2701 1.33088 9.26423 4.7194 5.18821L11.326 11.7948C9.59003 13.7627 9.66238 16.7613 11.5437 18.6427L21.3403 28.4474C21.3404 28.4475 21.3405 28.4477 21.3406 28.4478C23.2199 30.3271 26.2184 30.4042 28.1887 28.6659L34.7955 35.2726C30.7324 38.6553 24.7401 38.4772 20.8889 34.626ZM37.3133 32.8176L36.4845 33.6464L29.8544 27.0163L30.683 26.1875C31.1401 25.7306 31.8836 25.7305 32.3406 26.1875L37.3132 31.1601C37.7702 31.6171 37.7702 32.3607 37.3133 32.8176Z" fill="white"/>
</g>
<defs>
<clipPath id="clip0_309_190">
<rect width="40" height="40" fill="white"/>
</clipPath>
</defs>
</svg>
