<svg width="23" height="23" viewBox="0 0 23 23" fill="none" xmlns="http://www.w3.org/2000/svg">
<path d="M23 4.12142C22.139 4.50326 21.2743 4.7915 20.3159 4.88883C21.2743 4.31234 22.0417 3.354 22.4235 2.29834C21.4652 2.87484 20.5068 3.25667 19.4549 3.45133C18.4966 2.493 17.25 1.9165 15.9098 1.9165C13.3193 1.9165 11.2118 4.02409 11.2118 6.61084C11.2118 6.99642 11.2118 7.37825 11.3091 7.6665C7.37842 7.47559 3.93066 5.65251 1.62842 2.77751C1.14925 3.45133 0.958333 4.31234 0.958333 5.17334C0.958333 6.8055 1.81934 8.243 3.06592 9.104C2.2985 9.00667 1.53483 8.81576 0.958333 8.52751C0.958333 8.52751 0.958333 8.52751 0.958333 8.62484C0.958333 10.9233 2.58675 12.84 4.69434 13.2256C4.3125 13.3192 3.93066 13.4165 3.4515 13.4165C3.16325 13.4165 2.875 13.4165 2.58675 13.3192C3.16325 15.2358 4.889 16.5798 6.99658 16.5798C5.36816 17.8263 3.35417 18.59 1.14925 18.59C0.767415 18.59 0.381836 18.59 0 18.4964C2.10758 19.8366 4.60075 20.604 7.1875 20.604C15.9098 20.604 20.6042 13.4165 20.6042 7.18734C20.6042 6.99642 20.6042 6.8055 20.6042 6.61084C21.5625 5.94075 22.3299 5.07975 23 4.12142Z" fill="white"/>
</svg>
